 <svg  version="1.0" xmlns="http://www.w3.org/2000/svg"  width="237.000000pt" height="237.000000pt" viewBox="0 0 237.000000 237.000000"  preserveAspectRatio="xMidYMid meet">  <g transform="translate(0.000000,237.000000) scale(0.100000,-0.100000)" fill="#d18f00" stroke="none"> <path d="M1084 2295 c-93 -20 -181 -69 -250 -140 -82 -83 -108 -148 -109 -265 0 -77 3 -92 33 -152 22 -44 51 -84 90 -119 55 -51 178 -119 214 -119 17 0 18 -15 18 -204 0 -193 9 -266 31 -266 5 0 9 -122 9 -285 l0 -285 -39 0 c-37 0 -40 2 -43 32 -4 41 -20 45 -175 47 l-113 1 0 -25 c0 -27 -3 -26 149 -31 25 0 47 -6 49 -12 3 -9 -19 -12 -72 -12 l-76 0 0 -50 0 -50 85 0 c77 0 85 -2 96 -22 12 -22 12 -22 20 -3 4 11 8 56 9 100 l2 80 10 -55 c7 -38 7 -83 0 -145 -13 -102 -11 -105 56 -105 24 0 42 -5 42 -11 0 -7 -13 -9 -37 -5 -21 3 -32 3 -25 0 24 -11 12 -24 -23 -24 -34 0 -35 1 -35 40 0 22 -4 40 -10 40 -5 0 -10 -17 -10 -39 l0 -38 -82 -6 c-140 -11 -158 -10 -158 13 0 19 7 20 101 20 l100 0 -3 38 -3 37 -67 3 c-52 2 -68 6 -68 17 0 12 17 15 80 15 73 0 80 -2 80 -20 0 -11 5 -20 10 -20 6 0 10 14 10 30 l0 30 -100 0 -100 0 0 -35 0 -35 70 0 c63 0 70 -2 70 -20 0 -18 -7 -20 -84 -20 -107 0 -116 -4 -116 -47 l0 -35 183 7 c100 4 185 9 190 12 4 2 11 -7 17 -21 9 -24 14 -26 75 -26 l65 0 0 457 c0 421 1 458 18 476 15 17 17 43 17 232 l0 213 46 10 c130 30 256 127 311 240 30 60 33 75 33 157 0 82 -3 97 -33 157 -92 188 -332 292 -558 243z m240 -30 c175 -46 306 -170 332 -317 6 -38 -10 -56 -19 -20 -4 13 -5 12 -6 -5 0 -12 4 -23 10 -25 5 -2 10 -22 11 -44 0 -31 -10 -59 -40 -111 -64 -110 -144 -171 -275 -213 -68 -22 -76 -22 -227 -7 -61 7 -135 41 -177 83 -42 42 -69 60 -43 29 7 -9 11 -18 8 -20 -3 -3 -24 15 -47 41 -42 45 -93 139 -97 179 -7 67 -7 113 0 123 4 7 5 16 1 21 -3 5 -1 12 4 15 4 3 11 18 14 33 9 44 71 118 140 166 112 79 275 107 411 72z m-59 -970 c3 -206 -5 -245 -49 -245 -18 0 -25 7 -29 30 -4 17 -11 30 -17 30 -13 0 -13 -27 0 -35 15 -9 12 -25 -5 -25 -9 0 -15 9 -15 21 0 11 -6 27 -14 35 -22 22 -26 17 -10 -13 17 -33 18 -43 4 -43 -5 0 -10 7 -10 15 0 8 -3 15 -7 15 -5 0 -8 91 -8 202 l0 203 78 -2 78 -2 4 -186z m-62 -288 c16 -11 17 -39 18 -277 0 -284 -4 -385 -15 -411 -4 -9 -6 -34 -3 -55 l4 -39 1 43 c1 23 7 42 12 42 14 0 13 -117 -1 -126 -8 -4 -8 -9 0 -17 18 -18 13 -26 -16 -24 -19 2 -29 9 -31 22 -2 16 -1 17 7 5 12 -18 18 -13 24 20 2 14 2 19 0 13 -11 -31 -23 -8 -23 42 0 30 -4 55 -10 55 -6 0 -10 -33 -10 -80 0 -44 -4 -80 -9 -80 -5 0 -9 181 -8 440 2 437 2 440 23 440 11 0 28 -6 37 -13z m-293 -497 c0 -7 -24 -8 -67 -4 -91 9 -92 14 -5 14 43 0 72 -4 72 -10z m64 4 c13 -5 16 -22 15 -83 0 -42 -3 -70 -6 -63 -3 8 -30 12 -84 12 l-79 0 0 30 c0 29 1 30 51 30 28 0 59 -5 70 -10 15 -8 19 -7 19 3 0 8 3 28 6 45 6 27 4 30 -14 25 -11 -2 -23 0 -26 6 -8 12 22 15 48 5z m146 -109 c0 -9 -9 -15 -24 -15 -13 0 -31 -3 -40 -6 -10 -4 -16 -1 -16 9 0 18 14 25 53 26 18 1 27 -4 27 -14z m0 -35 c0 -5 -19 -10 -42 -9 -33 0 -38 2 -23 9 28 12 65 12 65 0z m0 -30 c0 -5 -18 -10 -40 -10 -22 0 -40 5 -40 10 0 6 18 10 40 10 22 0 40 -4 40 -10z m0 -55 c0 -16 -20 -19 -57 -9 -37 10 -26 24 17 24 29 0 40 -4 40 -15z m-24 -25 c13 0 24 -4 24 -9 0 -6 -17 -8 -37 -5 l-38 4 40 -14 40 -14 -42 -1 c-23 -1 -44 3 -47 8 -10 16 6 42 21 37 8 -3 26 -6 39 -6z"/> <path d="M1135 2263 c-109 -24 -195 -61 -217 -95 -9 -13 -30 -39 -47 -58 -17 -19 -36 -51 -43 -70 -17 -52 -16 -153 2 -175 11 -14 12 -19 3 -22 -18 -6 -15 -33 7 -68 42 -66 43 -68 28 -63 -7 3 -18 13 -23 24 -6 10 -15 26 -20 34 -6 8 -11 33 -12 55 -2 22 -7 65 -12 95 -4 30 -5 60 -1 65 13 18 18 66 6 62 -37 -12 -28 -251 11 -301 28 -35 129 -116 145 -116 7 1 2 10 -12 22 -14 11 -24 27 -22 34 2 8 -2 14 -8 14 -6 0 -8 -5 -4 -11 4 -7 1 -10 -7 -7 -8 3 -13 11 -11 17 1 7 -8 27 -20 44 -32 44 -49 79 -43 85 6 6 4 9 44 -50 59 -88 200 -158 318 -158 52 0 138 17 180 36 17 8 37 14 45 14 7 0 26 16 43 35 16 19 36 35 44 35 10 0 3 -13 -18 -34 -34 -35 -119 -83 -174 -97 -24 -6 -16 -7 30 -4 35 3 79 11 99 20 39 16 129 104 139 136 4 11 10 17 15 14 11 -7 30 27 30 52 -1 12 -5 8 -15 -12 -14 -30 -14 -30 -11 20 2 28 1 40 -1 28 -2 -13 -9 -23 -15 -23 -13 0 -2 83 12 88 5 2 0 28 -11 59 -10 30 -17 59 -14 63 3 4 -4 19 -15 33 -11 14 -20 29 -20 35 0 5 -14 20 -32 33 -17 13 -37 30 -44 37 -7 6 -17 12 -23 12 -6 0 -11 3 -11 8 0 8 -51 27 -130 47 -53 14 -123 17 -165 8z m226 -52 c154 -59 243 -218 194 -347 -16 -43 -69 -114 -84 -114 -4 0 -5 18 -3 39 6 63 -14 108 -57 131 -55 28 -149 58 -217 69 -80 13 -102 23 -151 69 -59 54 -57 112 3 112 48 0 55 -10 26 -36 l-27 -24 25 -20 c15 -12 37 -19 55 -18 29 3 30 5 33 60 3 55 1 59 -27 76 -17 10 -28 22 -24 25 15 16 198 0 254 -22z m-243 -17 c17 -12 22 -25 22 -60 0 -48 -17 -57 -52 -30 -19 14 -14 26 11 26 14 0 14 -2 1 -11 -12 -8 -12 -10 5 -7 29 5 31 43 3 62 -28 20 -92 21 -108 1 -13 -16 -40 -21 -40 -7 0 12 72 40 105 41 17 1 41 -6 53 -15z m-134 -73 c-5 -26 0 -36 42 -78 49 -49 80 -63 179 -78 58 -9 133 -33 182 -57 49 -24 63 -54 62 -135 -1 -47 -3 -53 -22 -53 -11 0 -17 -3 -14 -7 7 -7 -35 -28 -85 -43 -23 -7 -31 -4 -48 17 -11 14 -20 35 -20 46 0 24 46 87 63 87 8 0 8 -3 2 -8 -10 -7 -17 -36 -19 -82 -1 -34 37 -40 69 -10 13 12 28 19 34 16 13 -8 19 18 19 73 -1 32 -8 50 -27 71 -28 29 -70 40 -229 59 -66 8 -92 17 -132 43 -28 18 -50 37 -50 42 0 4 7 3 15 -4 8 -6 20 -10 26 -8 6 2 -8 13 -32 23 -48 22 -69 38 -69 54 0 6 -4 11 -10 11 -5 0 -10 7 -10 16 0 8 5 12 10 9 6 -3 10 -1 10 4 0 6 5 11 10 11 6 0 10 -15 10 -33 0 -36 7 -50 22 -41 5 3 4 12 -3 20 -12 15 -4 64 11 64 5 0 7 -13 4 -29z m-53 -101 c51 -49 142 -90 226 -100 178 -22 213 -31 229 -61 24 -48 -6 -139 -46 -139 -24 0 -25 8 -4 38 20 29 15 76 -9 80 -11 2 -32 -11 -53 -33 -41 -44 -45 -88 -12 -130 l22 -28 -90 5 c-123 7 -193 35 -265 107 -88 88 -109 182 -64 286 16 37 18 39 28 20 7 -11 24 -31 38 -45z m659 -217 c0 -17 -16 -29 -38 -30 -12 -1 -20 2 -17 8 4 5 14 9 23 9 15 0 15 2 2 10 -12 8 -11 10 8 10 12 0 22 -3 22 -7z m-42 -65 c-24 -36 -91 -99 -117 -109 -35 -14 -38 -3 -4 15 37 20 73 53 102 94 26 37 43 36 19 0z"/> <path d="M940 1676 c0 -2 17 -15 38 -28 42 -29 92 -44 92 -28 0 5 -8 10 -17 10 -10 0 -36 11 -58 25 -38 23 -55 30 -55 21z"/> <path d="M970 1596 c0 -12 64 -35 141 -51 115 -24 115 -16 -1 14 -58 15 -113 31 -122 35 -10 5 -18 5 -18 2z"/> <path d="M1230 1360 c0 -60 4 -100 10 -100 6 0 10 40 10 100 0 60 -4 100 -10 100 -6 0 -10 -40 -10 -100z"/> <path d="M1200 1365 c0 -47 4 -85 9 -85 4 0 8 38 9 85 0 47 -4 85 -9 85 -5 0 -9 -38 -9 -85z"/> <path d="M1238 1203 c-1 -37 -1 -37 -5 -5 -7 52 -23 37 -22 -20 1 -29 -1 -66 -4 -83 -2 -16 -2 -22 0 -12 5 20 19 23 26 5 3 -7 6 -2 7 12 1 14 5 51 9 83 4 31 3 57 -1 57 -4 0 -9 -17 -10 -37z"/> <path d="M1166 989 c11 -18 14 -99 4 -99 -6 0 -10 -22 -10 -50 0 -30 4 -50 11 -50 8 0 9 16 5 48 -4 33 -3 41 4 27 5 -11 7 -59 3 -107 -3 -57 -2 -88 5 -88 15 0 24 137 13 220 -6 41 -11 83 -11 93 0 9 -7 17 -16 17 -8 0 -12 -5 -8 -11z"/> <path d="M1201 598 c1 -68 6 -61 11 15 2 26 0 47 -4 47 -5 0 -7 -28 -7 -62z"/> <path d="M1180 410 c0 -22 5 -40 10 -40 6 0 10 18 10 40 0 22 -4 40 -10 40 -5 0 -10 -18 -10 -40z"/> <path d="M950 225 c0 -19 5 -35 10 -35 6 0 10 16 10 35 0 19 -4 35 -10 35 -5 0 -10 -16 -10 -35z"/> </g> </svg> 